<svg xmlns="http://www.w3.org/2000/svg" width="31" height="31" fill="none"><path fill="#000" d="M29.191.084c.48 0 .889.178 1.227.498.338.356.498.747.498 1.245v27.449c0 .48-.178.889-.498 1.226a1.674 1.674 0 0 1-1.245.498H21.37V19.089h4l.551-4.711h-4.551v-3.022c0-.711.178-1.28.498-1.654.32-.355.889-.569 1.777-.569h2.436V4.956a35.817 35.817 0 0 0-3.573-.178c-1.796 0-3.254.533-4.356 1.6-1.102 1.066-1.653 2.56-1.653 4.498v3.502h-3.982v4.71h3.982V31H1.742c-.498 0-.889-.178-1.244-.498A1.672 1.672 0 0 1 0 29.258V1.827C0 1.347.178.937.498.6A1.671 1.671 0 0 1 1.742.102h27.45V.084Z"/></svg>