<svg xmlns="http://www.w3.org/2000/svg" width="33" height="33" fill="none"><g fill="#000" clip-path="url(#a)"><path d="M16.591 3.81c4.16 0 4.658.017 6.293.088 1.53.071 2.347.32 2.898.533.73.303 1.245.623 1.796 1.174a4.736 4.736 0 0 1 1.155 1.777c.214.57.48 1.387.534 2.916.089 1.636.106 2.133.106 6.293s-.017 4.658-.089 6.294a8.515 8.515 0 0 1-.533 2.897c-.302.73-.622 1.245-1.173 1.796a4.923 4.923 0 0 1-1.796 1.173c-.55.214-1.369.462-2.898.534-1.635.07-2.133.088-6.293.088s-4.658 0-6.311-.088a8.515 8.515 0 0 1-2.88-.534c-.747-.284-1.244-.622-1.796-1.173-.55-.533-.888-1.067-1.173-1.778a8.658 8.658 0 0 1-.533-2.915c-.071-1.636-.09-2.134-.09-6.294s0-4.658.09-6.293c.07-1.529.32-2.347.533-2.898a4.845 4.845 0 0 1 1.173-1.795 4.736 4.736 0 0 1 1.778-1.156c.57-.213 1.387-.48 2.898-.533 1.653-.09 2.133-.107 6.311-.107Zm0-2.81c-4.231 0-4.764.018-6.435.09-1.654.07-2.792.355-3.787.71a8.148 8.148 0 0 0-2.756 1.814c-.835.87-1.369 1.742-1.795 2.755-.391.996-.658 2.133-.711 3.787C1 11.845 1 12.378 1 16.59c0 4.214.018 4.765.089 6.418.071 1.671.355 2.791.711 3.787a8.045 8.045 0 0 0 1.813 2.773 8.091 8.091 0 0 0 2.756 1.796c.995.39 2.133.657 3.787.71 1.67.09 2.204.107 6.435.107 4.249 0 4.765-.017 6.436-.089 1.653-.07 2.79-.355 3.786-.728a7.59 7.59 0 0 0 2.756-1.796 7.512 7.512 0 0 0 1.795-2.773c.392-.978.658-2.116.73-3.787.07-1.653.088-2.187.088-6.418 0-4.249 0-4.764-.089-6.435a11.5 11.5 0 0 0-.71-3.787 7.59 7.59 0 0 0-1.814-2.755 7.733 7.733 0 0 0-2.756-1.796 11.43 11.43 0 0 0-3.786-.729C20.883 1.003 18.737.974 16.59 1Z"/><path d="M16.644 8.111a8 8 0 1 0 0 16 8 8 0 0 0 0-16Zm0 13.21a5.2 5.2 0 1 1 0-10.4 5.2 5.2 0 0 1 0 10.4Zm8.232-11.432a1.867 1.867 0 1 0 0-3.734 1.867 1.867 0 0 0 0 3.734Z"/></g><defs><clipPath id="a"><path fill="#fff" d="M1 1h32v32H1z"/></clipPath></defs></svg>