<svg xmlns="http://www.w3.org/2000/svg" width="40" height="40" fill="none"><path stroke="#000" stroke-width="2" d="M25 25.413c2.301 0 4.384.933 5.892 2.44a8.307 8.307 0 0 1 2.441 5.893v3.333H6.667v-3.333c0-2.301.932-4.384 2.44-5.892A8.307 8.307 0 0 1 15 25.413h10Zm-4.617-20c1.742 0 3.326.68 4.495 1.785a6.356 6.356 0 0 1 1.997 4.309l.008 1.662a6.347 6.347 0 0 1-1.9 4.524 6.524 6.524 0 0 1-4.6 1.886 6.524 6.524 0 0 1-4.496-1.785 6.355 6.355 0 0 1-1.997-4.308l-.008-1.663c0-1.766.728-3.365 1.9-4.524a6.524 6.524 0 0 1 4.6-1.886Z"/></svg>