<svg xmlns="http://www.w3.org/2000/svg" width="144" height="56" fill="none"><path fill="#000" fill-rule="evenodd" d="M27.912 1.59c.404 0 .731.329.731.734v8.633a.733.733 0 0 1-.731.734h-7.784v43.557a.733.733 0 0 1-.732.734H9.246a.733.733 0 0 1-.73-.734V11.692H.73A.733.733 0 0 1 0 10.956V2.325c0-.405.327-.734.731-.734h27.18Zm42.156 0c5.057 0 8.903 1.244 11.535 3.73 2.632 2.486 3.948 5.776 3.948 9.868 0 4.093-1.265 7.318-3.793 9.674-2.529 2.358-6.425 3.536-11.69 3.536v1.165h3.097c4.076 0 7.095.933 9.057 2.797 1.96 1.865 2.942 4.56 2.942 8.082V51.32c0 .88.09 1.58.271 2.098.18.518.4.907.658 1.165.257.311.593.519 1.006.622v.777h-9.677c-1.343 0-2.322-.362-2.94-1.088-.62-.725-.93-2.175-.93-4.351V38.499c0-2.59-1.162-3.885-3.484-3.885v20.634a.733.733 0 0 1-.732.734H59.188a.733.733 0 0 1-.732-.734V2.324c0-.405.328-.734.732-.734h10.88Zm29.357 0c.404 0 .732.329.732.734v43.557h9.719c.404 0 .732.328.732.734v8.633a.733.733 0 0 1-.732.734h-20.6a.733.733 0 0 1-.731-.734V2.324c0-.405.327-.734.731-.734h10.15ZM40.92 0c5.182 0 9.54 3.903 10.129 9.071l5.07 46.096a.733.733 0 0 1-.727.815H44.897a.732.732 0 0 1-.73-.69l-.5-8.246H38.17l-.5 8.246a.733.733 0 0 1-.73.69H26.446a.733.733 0 0 1-.727-.815l5.07-46.096c.578-5.074 4.79-8.929 9.848-9.067L40.919 0Zm87.015 0c5.183 0 9.541 3.903 10.129 9.071l5.071 46.096a.733.733 0 0 1-.727.815h-10.495a.733.733 0 0 1-.73-.69l-.499-8.246h-5.497l-.5 8.246a.732.732 0 0 1-.73.69h-10.495a.732.732 0 0 1-.726-.815l5.07-46.096c.578-5.074 4.789-8.929 9.847-9.067l.282-.004ZM40.919 12.469a.626.626 0 0 0-.624.58l-1.738 23.896h4.723L41.54 13.05a.625.625 0 0 0-.622-.582Zm87.015 0a.626.626 0 0 0-.623.58l-1.738 23.896h4.722l-1.738-23.895a.626.626 0 0 0-.623-.582Zm-57.48-2.332h-.386v13.21h.387c.98 0 1.806-.467 2.478-1.399.67-.932 1.005-2.667 1.005-5.206 0-2.537-.335-4.274-1.005-5.206-.672-.932-1.498-1.399-2.478-1.399Z" clip-rule="evenodd"/></svg>