<svg xmlns="http://www.w3.org/2000/svg" width="40" height="40" fill="none"><path fill="#000" stroke="#000" stroke-linecap="square" stroke-linejoin="round" stroke-width=".3" d="M20.625 3.746a7.02 7.02 0 0 1 4.86 1.933 6.491 6.491 0 0 1 2.006 4.346l.009.328v3.393h4.762l2.696 19.914a4.587 4.587 0 0 1-.987 3.522 4.241 4.241 0 0 1-2.998 1.555l-.27.01H9.297a4.231 4.231 0 0 1-3.267-1.565 4.58 4.58 0 0 1-1.016-3.251l.029-.271 2.696-19.914h6.012v-3.393c0-3.65 3.08-6.607 6.875-6.607Zm9.451 12.5H27.5v5h-2.592v-5H16.34l.001 5H13.75v-5H9.922L7.52 33.996c-.06.45.025.905.233 1.288l.097.16.112.15c.3.366.71.59 1.147.641l.188.011h21.408c.505 0 .992-.234 1.335-.652.317-.385.481-.89.459-1.406l-.017-.193-2.405-17.749Zm-9.451-10c-2.285 0-4.15 1.715-4.276 3.874l-.007.233v3.393h8.566v-3.393c0-1.088-.45-2.132-1.253-2.902a4.377 4.377 0 0 0-3.03-1.205Z"/></svg>