<svg xmlns="http://www.w3.org/2000/svg" width="33" height="33" fill="none"><g clip-path="url(#a)"><path fill="#000" d="M17 1.5C8.168 1.5 1 8.444 1 17c0 8.556 7.168 15.5 16 15.5S33 25.556 33 17c0-8.556-7.168-15.5-16-15.5Zm6.497 22.806c-.271 0-.439-.081-.69-.225-4.026-2.35-8.71-2.45-13.336-1.531-.252.063-.58.162-.768.162a.989.989 0 0 1-1.02-.987c0-.644.394-.95.878-1.05 5.284-1.131 10.684-1.031 15.29 1.637.394.244.626.463.626 1.032s-.458.962-.98.962Zm1.735-4.1c-.335 0-.561-.143-.793-.262-4.032-2.313-10.046-3.244-15.394-1.838-.31.081-.477.163-.768.163-.69 0-1.251-.544-1.251-1.213s.335-1.112 1-1.294c1.793-.487 3.626-.85 6.31-.85 4.187 0 8.232 1.007 11.419 2.844.522.3.729.688.729 1.232a1.23 1.23 0 0 1-1.252 1.218Zm2-4.762c-.335 0-.542-.082-.832-.244-4.593-2.656-12.806-3.294-18.123-1.856-.232.062-.522.162-.832.162-.851 0-1.503-.643-1.503-1.475 0-.85.542-1.331 1.123-1.494 2.27-.643 4.812-.95 7.58-.95 4.71 0 9.645.95 13.252 2.988.503.281.832.669.832 1.413 0 .85-.71 1.456-1.497 1.456Z"/></g><defs><clipPath id="a"><path fill="#fff" d="M1 1h32v32H1z"/></clipPath></defs></svg>