<svg xmlns="http://www.w3.org/2000/svg" width="400" height="288" fill="none"><g clip-path="url(#a)"><path fill="#FFC3A0" d="m204.315 64 .17 135.437-49.613-125.989 33.909 131.091-79.464-109.67 65.523 118.51-104.325-86.464 93.016 98.48-122.627-57.822 114.667 72.264-133.23-25.546 129.112 41.506L16 264.133l135.44 8.144-129.168 41.688 133.261-25.733-114.768 72.424 122.712-57.992-93.157 98.613 104.448-86.61-65.691 118.602 79.624-109.786L154.6 454.621l49.795-126.058-.36 135.437 16.834-134.413 33.398 131.224-17.179-134.32 65.056 118.762-50.117-125.789 92.629 98.845-79.901-109.354 114.381 72.712-104.667-86.051 128.944 42.013-122.858-57.333 135.408 8.672-133.326-25.024L416 238.733l-135.424 8.87 122.941-57.512-129.005 42.194 104.789-86.197-114.482 72.875 80.053-109.47-92.763 98.976 50.288-125.858-65.221 118.853L254.544 67.12l-33.581 131.269L204.315 64Z"/></g><defs><clipPath id="a"><path fill="#fff" d="M0 0h400v400H0z"/></clipPath></defs></svg>