<svg xmlns="http://www.w3.org/2000/svg" width="400" height="288" fill="none"><g clip-path="url(#a)"><path fill="#FFC3A0" d="m206.315-179 .17 135.437-49.613-125.989 33.909 131.09-79.464-109.669 65.523 118.51-104.325-86.464 93.016 98.48L42.904-75.427 157.571-3.163 24.341-28.709l129.112 41.506L18 21.133l135.44 8.144L24.272 70.965l133.261-25.733-114.768 72.424 122.712-57.992-93.157 98.613 104.448-86.61-65.691 118.602 79.624-109.786L156.6 211.62l49.795-126.058-.36 135.437 16.834-134.413 33.398 131.224-17.179-134.32 65.056 118.762-50.117-125.789 92.629 98.845-79.901-109.354 114.381 72.712-104.667-86.051 128.944 42.013-122.858-57.333 135.408 8.672-133.326-25.024L418-4.266 282.576 4.602 405.517-52.91 276.512-10.715l104.789-86.197-114.482 72.875 80.053-109.47-92.763 98.976 50.288-125.858-65.221 118.853 17.368-134.344-33.581 131.27L206.315-179Z"/></g><defs><clipPath id="a"><path fill="#fff" d="M0-112h400v400H0z"/></clipPath></defs></svg>