<svg xmlns="http://www.w3.org/2000/svg" width="33" height="33" fill="none"><g clip-path="url(#a)"><path fill="#000" d="M17.04 1H23s-.34 6.791 8.26 7.289v5.244s-4.6.25-8.26-2.24l.06 10.845c0 1.941-.648 3.84-1.862 5.454-1.214 1.614-2.94 2.872-4.958 3.614-2.018.742-4.24.935-6.381.555-2.142-.38-4.11-1.316-5.653-2.69-1.543-1.375-2.593-3.125-3.016-5.03a8.806 8.806 0 0 1 .636-5.671c.839-1.793 2.257-3.324 4.075-4.4 1.818-1.077 3.955-1.65 6.139-1.646h1.54v5.387a5.595 5.595 0 0 0-3.079.034c-.997.3-1.862.87-2.472 1.632a4.114 4.114 0 0 0-.929 2.61c.007.934.346 1.844.968 2.598.622.754 1.496 1.314 2.497 1.601a5.596 5.596 0 0 0 3.08-.002c1-.29 1.872-.851 2.493-1.606.62-.755.957-1.665.962-2.6L17.04 1Z"/></g><defs><clipPath id="a"><path fill="#fff" d="M1 1h32v32H1z"/></clipPath></defs></svg>