<svg xmlns="http://www.w3.org/2000/svg" width="32" height="30" fill="none"><path fill="#000" d="M31.36 3.547a14.78 14.78 0 0 1-3.111 3.882c0 .107 0 .278.036.49l.035.492c-.005 4.21-1.05 8.322-3.004 11.818-1.014 1.814-2.205 3.456-3.591 4.864-1.488 1.49-3.186 2.645-5.014 3.414-2.597 1.113-5.37 1.504-8.112 1.142-2.74-.362-5.377-1.468-7.71-3.233.604.043 1.084.085 1.475.085 2.916 0 5.512-1.066 7.787-3.2-1.305-.048-2.567-.575-3.616-1.51-1.049-.934-1.834-2.23-2.25-3.716a4.351 4.351 0 0 0 2.826-.128C5.7 17.615 4.43 16.702 3.52 15.365c-.934-1.321-1.44-3.003-1.422-4.736v-.064c.818.512 1.742.79 2.809.854-.85-.678-1.544-1.598-2.022-2.678a8.566 8.566 0 0 1-.716-3.51c0-1.3.249-2.56.8-3.818C4.51 3.731 6.452 5.623 8.658 6.96c2.255 1.371 4.728 2.15 7.253 2.283a7.583 7.583 0 0 1-.231-1.707c0-2.07.605-3.84 1.831-5.29A6.192 6.192 0 0 1 19.587.58a5.24 5.24 0 0 1 2.457-.533c.847 0 1.684.21 2.46.613a6.342 6.342 0 0 1 2.056 1.734c1.422-.32 2.738-.94 3.965-1.814-.447 1.744-1.424 3.222-2.738 4.139a11.94 11.94 0 0 0 3.573-1.152v-.021Z"/></svg>